<svg width="40" height="40" viewBox="0 0 40 40" fill="none" xmlns="http://www.w3.org/2000/svg">
<path d="M6.25 33L5 38H15L13.75 33H6.25Z" fill="#64F391"/>
<path d="M26.25 33L25 38H35L33.75 33H26.25Z" fill="#64F391"/>
<path d="M40 18.4167V15.9167C36.06 15.9167 32.7583 13.2817 31.6667 9.695V3H28.3333V9.695C27.2417 13.2817 23.94 15.9167 20 15.9167C16.06 15.9167 12.7583 13.2817 11.6667 9.695V3H8.33333V9.695C7.24167 13.2817 3.94 15.9167 0 15.9167V18.4167C3.305 18.4167 6.27333 16.975 8.33333 14.6983V23H0V26.3333H8.33333V31.3333H11.6667V26.3333H28.3333V31.3333H31.6667V26.3333H40V23H31.6667V14.6983C33.7267 16.975 36.695 18.4167 40 18.4167ZM28.3333 23H11.6667V14.6983C13.7267 16.975 16.695 18.4167 20 18.4167C23.305 18.4167 26.2733 16.975 28.3333 14.6983V23Z" fill="#64F391"/>
</svg>
