<svg width="54" height="54" viewBox="0 0 54 54" fill="none" xmlns="http://www.w3.org/2000/svg">
<path d="M29.4375 5.20623V2H25.7463V5.20623H1V9.00027H3.1731V39.7053C3.18667 40.2629 3.41173 40.7929 3.80026 41.1823C4.18878 41.5717 4.70999 41.7895 5.25262 41.7893H19.2166L15.8894 46.3422C15.3535 46.3797 14.8399 46.5774 14.4119 46.911C13.9838 47.2446 13.66 47.6995 13.4802 48.2197C13.3003 48.74 13.2724 49.303 13.3997 49.8393C13.5271 50.3757 13.8042 50.8622 14.197 51.2388C14.5898 51.6154 15.0811 51.8658 15.6105 51.9592C16.14 52.0526 16.6844 51.9849 17.1769 51.7644C17.6693 51.5439 18.0884 51.1803 18.3824 50.7182C18.6765 50.2561 18.8327 49.7158 18.8319 49.1637C18.8426 49.0071 18.8426 48.85 18.8319 48.6934L23.8748 41.7893H30.4876L35.2082 48.2018C35.0749 48.5915 35.0262 49.0065 35.0654 49.4176C35.1047 49.8287 35.231 50.226 35.4354 50.5817C35.6398 50.9373 35.9175 51.2427 36.2489 51.4764C36.5803 51.7101 36.9574 51.8664 37.3538 51.9344C37.7502 52.0025 38.1563 51.9806 38.5435 51.8702C38.9308 51.7599 39.2899 51.5638 39.5957 51.2958C39.9015 51.0277 40.1465 50.6941 40.3136 50.3184C40.4807 49.9427 40.5658 49.534 40.5629 49.1209C40.5608 48.4923 40.3554 47.8823 39.9789 47.387C39.6024 46.8917 39.0763 46.5391 38.4834 46.3849L35.0834 41.7466H49.0994C49.642 41.7468 50.1632 41.5289 50.5517 41.1396C50.9403 40.7502 51.1653 40.2201 51.1789 39.6625V9.00027H53.3V5.20623H29.4375ZM30.7892 30.7599L24.0827 24.8925L15.7022 32.2241L10.493 27.6499L12.5206 25.2131L15.7022 28.0025L24.0827 20.671L30.7892 26.5811L43.859 15.1028L45.8761 17.5502L30.7892 30.7599Z" fill="#64F391"/>
</svg>
