<svg width="34" height="34" viewBox="0 0 34 34" fill="none" xmlns="http://www.w3.org/2000/svg">
<path d="M8.68579 3.87329L2.17577 6.76662L17.0008 13.5033L22.7324 10.9L8.68579 3.87329Z" fill="#64F391"/>
<path d="M26.6359 9.1233L31.8242 6.76658L17.6775 0.478249C17.2459 0.284919 16.7542 0.284919 16.3242 0.478249L12.6309 2.12159L26.6359 9.1233Z" fill="#64F391"/>
<path d="M18.666 16.4068V33.0834L32.676 26.8568C33.2793 26.5918 33.666 25.9934 33.666 25.3351V9.59009L18.666 16.4068Z" fill="#64F391"/>
<path d="M15.334 16.4068L0.333977 9.59009V25.3351C0.333977 25.9951 0.720647 26.5918 1.32398 26.8584L15.334 33.0834V16.4068ZM3.66732 20.3351V15.3351L12.0007 18.6684V23.6684L3.66732 20.3351Z" fill="#64F391"/>
</svg>
