<svg width="40" height="40" viewBox="0 0 40 40" fill="none" xmlns="http://www.w3.org/2000/svg">
<path d="M32.8463 10.4883L26.1796 3.82159C25.8663 3.50992 25.4446 3.33325 25.0013 3.33325H8.33464C7.41297 3.33325 6.66797 4.07992 6.66797 4.99992V34.9999C6.66797 35.9199 7.41297 36.6666 8.33464 36.6666H31.668C32.5896 36.6666 33.3346 35.9199 33.3346 34.9999V11.6666C33.3346 11.2249 33.1596 10.8016 32.8463 10.4883ZM15.0013 14.9999H18.3346V11.6666H21.668V14.9999H25.0013V18.3333H21.668V21.6666H18.3346V18.3333H15.0013V14.9999ZM28.3346 31.6666H11.668V29.9999H28.3346V31.6666ZM28.3346 26.6666H11.668V24.9999H28.3346V26.6666ZM25.0013 11.6666V4.99992L31.668 11.6666H25.0013Z" fill="#64F391"/>
</svg>
