<svg width="40" height="40" viewBox="0 0 40 40" fill="none" xmlns="http://www.w3.org/2000/svg">
<path d="M21.6667 6.66667V0H18.3333V6.66667H0V10H5V16.6667H8.33333V10H18.3333V21.6667H21.6667V10H31.6667V18.3333H35V10H40V6.66667H21.6667Z" fill="#64F391"/>
<path d="M28.334 30H38.334L33.334 20L28.334 30Z" fill="#64F391"/>
<path d="M6.66602 28.3333C9.42744 28.3333 11.666 26.0947 11.666 23.3333C11.666 20.5718 9.42744 18.3333 6.66602 18.3333C3.90459 18.3333 1.66602 20.5718 1.66602 23.3333C1.66602 26.0947 3.90459 28.3333 6.66602 28.3333Z" fill="#64F391"/>
<path d="M15 31.6666C15 38.3332 20.3983 39.9999 25 39.9999C25 39.9999 21.6667 36.6666 21.6667 31.6666C21.6667 26.6666 25 23.3333 25 23.3333C20.3983 23.3333 15 24.9999 15 31.6666Z" fill="#64F391"/>
</svg>
