<svg width="40" height="40" viewBox="0 0 40 40" fill="none" xmlns="http://www.w3.org/2000/svg">
<path d="M28.4054 8.73234C31.4187 7.92734 34.5587 8.339 37.2587 9.899L38.9254 7.01067C32.5004 3.304 24.4537 4.91567 19.8787 10.4523C15.302 4.914 7.2537 3.30234 0.832031 7.01067L2.4987 9.899C5.1987 8.339 8.34203 7.92567 11.352 8.73234C13.4704 9.299 15.3337 10.434 16.8004 11.989C10.002 13.4123 4.8787 19.454 4.8787 26.6673H8.21203C8.21203 20.489 13.0437 15.429 19.127 15.039L14.7587 38.3323H24.7587L24.1337 34.999H19.7587V33.3323H23.822L23.197 29.999H19.7604V28.3323H22.8854L22.2604 24.999H19.7604V23.3323H21.947L20.3904 15.0273C26.5854 15.2973 31.547 20.4057 31.547 26.6673H34.8804C34.8804 19.4523 29.757 13.4123 22.9587 11.989C24.4254 10.434 26.2887 9.299 28.4054 8.73234Z" fill="#64F391"/>
</svg>
