<svg width="40" height="40" viewBox="0 0 40 40" fill="none" xmlns="http://www.w3.org/2000/svg">
<path d="M34.2696 18.3649C32.578 10.9766 30.8313 3.33325 20.0013 3.33325C12.6496 3.33325 6.66797 9.31492 6.66797 16.6666V36.6666H26.668V31.6666H28.3346C30.173 31.6666 31.668 30.1716 31.668 28.3333V23.3333H35.4696C35.4696 23.3333 34.4863 19.3199 34.2696 18.3649ZM20.0013 23.3133C20.0013 23.3133 13.3346 18.4666 13.3346 14.8733C13.3346 11.4616 18.5196 9.97825 20.0013 14.4599C21.483 9.97992 26.668 11.4616 26.668 14.8733C26.668 18.4666 20.0013 23.3133 20.0013 23.3133Z" fill="#64F391"/>
</svg>
