<svg width="40" height="40" viewBox="0 0 40 40" fill="none" xmlns="http://www.w3.org/2000/svg">
<path d="M34.9613 34.2583L33.2313 22.7217C33.0996 21.8483 32.6279 21.0617 31.9163 20.535C31.4796 20.215 30.9729 20.02 30.4479 19.94L27.7946 8.00333C27.6146 3.56333 23.9763 0 19.4946 0C15.0146 0 11.3746 3.56333 11.1963 8.00167L8.54294 19.9383C8.01627 20.02 7.50961 20.2133 7.07461 20.5333C6.36294 21.06 5.89128 21.8467 5.75794 22.72L4.02961 34.2567C3.75628 36.08 5.00961 37.7733 6.83127 38.0483L8.47961 38.2933C10.2996 38.5667 11.9963 37.3133 12.2696 35.4917L13.9996 23.955C14.2379 22.3667 13.3129 20.875 11.8663 20.3367L13.3063 13.86C14.8346 15.57 17.0296 16.6667 19.4946 16.6667C21.9596 16.6667 24.1546 15.57 25.6829 13.8633L27.1229 20.34C25.6746 20.8783 24.7513 22.37 24.9896 23.9583L26.7213 35.495C26.9946 37.315 28.6929 38.5683 30.5113 38.2967L32.1596 38.0517C33.9813 37.775 35.2346 36.08 34.9613 34.2583ZM19.4946 13.3333C16.7379 13.3333 14.4946 11.09 14.4946 8.33333C14.4946 5.57667 16.7379 3.33333 19.4946 3.33333C22.2513 3.33333 24.4946 5.57667 24.4946 8.33333C24.4946 11.09 22.2513 13.3333 19.4946 13.3333Z" fill="#64F391"/>
</svg>
