<svg width="40" height="40" viewBox="0 0 40 40" fill="none" xmlns="http://www.w3.org/2000/svg">
<path fill-rule="evenodd" clip-rule="evenodd" d="M28.9126 5.03479H31.9029C33.552 5.03479 34.8932 6.39589 34.8932 8.06957V17.013C33.5396 16.2301 32.0235 15.6969 30.4077 15.4766V14.1391H24.4272V16.1325C23.3515 16.5325 22.3467 17.0782 21.4369 17.7457V14.1391H15.4563V20.2087H18.9236C18.2208 21.1273 17.6441 22.1475 17.2195 23.2435H15.4563V29.3131H16.4956C16.7102 30.9538 17.2472 32.4931 18.041 33.8653H4.99029C3.34114 33.8653 2 32.5026 2 30.8305V8.06957C2 6.39741 3.34114 5.03479 4.99029 5.03479H7.98058V9.58697H10.9709V2H13.9612V5.03479H22.932V9.58697H25.9223V2H28.9126V5.03479ZM6.48543 29.3131H12.466V23.2435H6.48543V29.3131ZM6.48543 20.2087H12.466V14.1391H6.48543V20.2087Z" fill="#58F287"/>
<path fill-rule="evenodd" clip-rule="evenodd" d="M31.1406 18.744C30.9982 19.0978 30.5997 19.2727 30.2459 19.1304C29.8921 18.988 29.7213 18.5895 29.8596 18.2357C30.0019 17.8819 30.4004 17.707 30.7542 17.8493C31.108 17.9917 31.2829 18.3902 31.1406 18.744ZM35.4707 21.0499C35.6903 20.4968 35.4219 19.8705 34.8688 19.6509C34.3158 19.4313 33.6895 19.6997 33.4699 20.2528C33.2503 20.8059 33.5187 21.4322 34.0718 21.6518C34.6248 21.8754 35.2511 21.603 35.4707 21.0499ZM38.2647 24.9214C37.98 25.6331 37.1748 25.9828 36.4631 25.6981C35.7515 25.4175 35.4058 24.6123 35.6864 23.8966C35.9711 23.1849 36.7763 22.8352 37.4879 23.1198C38.1996 23.4045 38.5494 24.2097 38.2647 24.9214ZM38.0256 27.4672C37.2325 27.15 36.3338 27.5404 36.0166 28.3334C35.6994 29.1264 36.0898 30.0251 36.8828 30.3423C37.6758 30.6595 38.5746 30.2691 38.8918 29.4761C39.2049 28.6831 38.8186 27.7844 38.0256 27.4672ZM36.3543 31.6762C35.5613 31.3631 34.6666 31.7494 34.3494 32.5384C34.0362 33.3314 34.4226 34.2261 35.2115 34.5433C36.0045 34.8564 36.8992 34.4701 37.2164 33.6811C37.5336 32.8881 37.1473 31.9894 36.3543 31.6762ZM29.107 35.8284C28.8955 35.8568 28.6799 35.8772 28.4644 35.8894C28.3302 35.8975 28.196 35.9016 28.0618 35.8975H27.8585H27.7568L27.6551 35.8934C27.3867 35.8812 27.1183 35.8568 26.8499 35.8202C25.7844 35.6738 24.7434 35.3119 23.8039 34.7629C22.8645 34.2139 22.0308 33.4778 21.3639 32.6075C20.697 31.7372 20.1967 30.7368 19.9039 29.6673C19.7575 29.1345 19.664 28.5855 19.6233 28.0324C19.5827 27.4794 19.5989 26.9182 19.664 26.3651C19.7331 25.812 19.8511 25.263 20.0259 24.7303C20.2008 24.1975 20.4286 23.681 20.701 23.193C20.7336 23.132 20.7702 23.071 20.8068 23.01L20.9166 22.827L21.0304 22.6522C21.067 22.5952 21.1077 22.5342 21.1484 22.4773L21.1903 22.4183C21.2579 22.3231 21.3264 22.2266 21.4005 22.1357L21.5306 21.9689L21.6689 21.8063C21.7285 21.7331 21.7918 21.6635 21.8551 21.5939L21.8551 21.5939C21.8867 21.5591 21.9183 21.5243 21.9495 21.4891C21.9764 21.4573 22.0062 21.427 22.0363 21.3964C22.0563 21.3761 22.0764 21.3556 22.0959 21.3345C22.112 21.3184 22.1281 21.3019 22.1444 21.2852L22.1444 21.2851L22.1444 21.2851C22.1774 21.2512 22.211 21.2167 22.2464 21.1841C22.4538 20.9889 22.6612 20.7977 22.8849 20.6229C23.7714 19.9112 24.8003 19.3825 25.8983 19.0572L26.427 18.8986L26.1464 17.8534L25.6096 17.9876C24.3611 18.3008 23.1655 18.8538 22.1244 19.6265C21.86 19.8176 21.612 20.025 21.368 20.2365C21.327 20.272 21.2878 20.3094 21.248 20.3474L21.248 20.3474C21.2286 20.3659 21.209 20.3846 21.189 20.4033C21.1645 20.4278 21.1385 20.4515 21.1126 20.4752C21.0783 20.5065 21.0443 20.5376 21.0142 20.57C20.9762 20.6093 20.9378 20.6477 20.8996 20.6859L20.8995 20.686C20.823 20.7625 20.7471 20.8384 20.6766 20.9197L20.514 21.0987L20.3554 21.2857C20.2729 21.3809 20.1953 21.481 20.1169 21.5823L20.1169 21.5823L20.1169 21.5824C20.0948 21.6109 20.0727 21.6394 20.0503 21.668C20.0151 21.7114 19.9835 21.7548 19.9518 21.7981C19.936 21.8198 19.9202 21.8415 19.9039 21.8632L19.7616 22.0625L19.6274 22.2658L19.5978 22.3112C19.5631 22.3641 19.529 22.4162 19.4973 22.4732C19.1557 23.0304 18.8669 23.62 18.6351 24.2341C18.4074 24.8482 18.2407 25.4867 18.1349 26.1373C18.0292 26.788 17.9844 27.4468 18.0048 28.1056C18.0251 28.7644 18.1105 29.4233 18.2569 30.0699C18.5538 31.3631 19.1069 32.5994 19.8755 33.6893C20.6441 34.7791 21.6282 35.7226 22.7588 36.4506C23.8893 37.1785 25.1704 37.6828 26.5042 37.9227C26.8377 37.9837 27.1753 38.0285 27.5128 38.0569L27.6389 38.0691C27.6592 38.0712 27.6805 38.0722 27.7019 38.0732C27.7232 38.0742 27.7446 38.0752 27.7649 38.0773L28.0171 38.0895C28.1879 38.0976 28.3546 38.1017 28.5254 38.0976C29.0134 38.0935 29.5055 38.0529 29.9894 37.9756L30.5384 39.3013L33.6536 35.2509L28.5905 34.5799L29.107 35.8284ZM21.4536 27.3574C21.4536 23.6526 24.4548 20.6514 28.1596 20.6514C31.8644 20.6514 34.8656 23.6526 34.8656 27.3574C34.8656 31.0622 31.8603 34.0635 28.1596 34.0635C24.4589 34.0635 21.4536 31.0622 21.4536 27.3574ZM27.0128 28.3131C27.5781 29.2078 28.8266 29.346 29.5748 28.5978C30.319 27.8495 30.1808 26.6051 29.2861 26.0357C28.8489 25.7591 28.362 25.451 27.8722 25.1411C26.6987 24.3986 25.508 23.6452 24.9428 23.2866L24.528 23.0223L23.9993 23.551C24.268 23.9767 24.711 24.6761 25.214 25.4704C25.7921 26.3833 26.4495 27.4215 27.0128 28.3131Z" fill="#58F287"/>
</svg>
